<?xml version="1.0" encoding="utf-8"?>
<svg viewBox="249.2872 313.5015 85.0395 85.0186" xmlns="http://www.w3.org/2000/svg">
  <g id="Layer1000">
    <path d="m 291.8069,313.5025 c 23.4131,0 42.5198,19.084 42.5198,42.5197 0,23.413 -19.1067,42.497 -42.5198,42.497 -23.413,0 -42.5197,-19.084 -42.5197,-42.497 0,-23.4357 19.1067,-42.5197 42.5197,-42.5197 z" style="fill:#d2d500;fill-rule:evenodd;stroke:#deb000;stroke-width:0.068;stroke-linecap:butt;stroke-linejoin:miter;stroke-dasharray:none" id="path2"/>
    <path d="m 291.8069,315.021 c 22.5745,0 40.9785,18.4268 40.9785,41.0012 0,22.5744 -18.404,40.9785 -40.9785,40.9785 -22.5744,0 -41.0011,-18.4041 -41.0011,-40.9785 0,-22.5744 18.4267,-41.0012 41.0011,-41.0012 z" style="fill:#0f117a;fill-rule:evenodd;stroke:#deb000;stroke-width:0.068;stroke-linecap:butt;stroke-linejoin:miter;stroke-dasharray:none" id="path4"/>
    <path d="m 291.7589,325.1218 c 16.9309,0 30.7339,13.803 30.7339,30.7565 0,16.9308 -13.803,30.7339 -30.7339,30.7339 -16.9308,0 -30.7565,-13.8031 -30.7565,-30.7339 0,-16.9535 13.8257,-30.7565 30.7565,-30.7565 z m 0.048,-1.2387 c 17.7015,0 32.1391,14.4377 32.1391,32.1391 0,17.6788 -14.4376,32.1164 -32.1391,32.1164 -17.7014,0 -32.1391,-14.4376 -32.1391,-32.1164 0,-17.7014 14.4377,-32.1391 32.1391,-32.1391 z" style="fill:#d2d500;fill-rule:evenodd;stroke:#deb000;stroke-width:0.068;stroke-linecap:butt;stroke-linejoin:miter;stroke-dasharray:none" id="path6"/>
    <path d="m 291.7589,325.6896 1.5489,0.0394 1.5287,0.1169 1.5068,0.1924 1.4829,0.2659 1.4572,0.3378 1.4297,0.4075 1.4001,0.4754 1.3688,0.5413 1.3355,0.6055 1.3004,0.6676 1.2632,0.728 1.2242,0.7862 1.1833,0.8428 1.1404,0.8972 1.0955,0.9499 1.0488,1.0005 1,1.0494 0.9494,1.0961 0.897,1.1411 0.8424,1.184 0.786,1.2252 0.7277,1.2642 0.6675,1.3014 0.6053,1.3366 0.5413,1.3701 0.4753,1.4015 0.4075,1.4311 0.3377,1.4588 0.2659,1.4846 0.1925,1.5087 0.1168,1.5306 0.0394,1.551 -0.0394,1.5489 -0.1168,1.5288 -0.1925,1.5068 -0.2659,1.4829 -0.3377,1.4572 -0.4074,1.4297 -0.4754,1.4002 -0.5412,1.3687 -0.6054,1.3356 -0.6674,1.3004 -0.7277,1.2632 -0.7859,1.2243 -0.8425,1.1832 -0.897,1.1404 -0.9493,1.0955 -1.0001,1.0487 -1.0488,1.0002 -1.0955,0.9493 -1.1404,0.897 -1.1833,0.8424 -1.2242,0.7861 -1.2632,0.7276 -1.3004,0.6675 -1.3355,0.6052 -1.3689,0.5413 -1.4001,0.4754 -1.4297,0.4074 -1.4572,0.3376 -1.4829,0.266 -1.5068,0.1924 -1.5287,0.1168 -1.5489,0.0393 -1.549,-0.0393 -1.529,-0.1168 -1.507,-0.1924 -1.4834,-0.266 -1.4578,-0.3376 -1.4302,-0.4074 -1.4009,-0.4754 -1.3695,-0.5413 -1.3365,-0.6053 -1.3012,-0.6675 -1.2642,-0.7276 -1.2252,-0.7861 -1.1843,-0.8424 -1.1414,-0.897 -1.0966,-0.9494 -1.0498,-1.0002 -1.0012,-1.0488 -0.9505,-1.0955 -0.8979,-1.1403 -0.8434,-1.1833 -0.7871,-1.2243 -0.7285,-1.2632 -0.6683,-1.3003 -0.6061,-1.3357 -0.5421,-1.3687 -0.476,-1.4002 -0.408,-1.4296 -0.3381,-1.4572 -0.2664,-1.4828 -0.1926,-1.5068 -0.1171,-1.5287 -0.0393,-1.5489 0.0393,-1.5509 0.1171,-1.5307 0.1926,-1.5085 0.2664,-1.4847 0.3381,-1.4587 0.4081,-1.4311 0.4759,-1.4015 0.5421,-1.3701 0.6061,-1.3366 0.6684,-1.3014 0.7285,-1.2641 0.7871,-1.2252 0.8434,-1.184 0.8979,-1.1411 0.9505,-1.0962 1.0012,-1.0494 1.0498,-1.0005 1.0966,-0.9499 1.1414,-0.8973 1.1843,-0.8428 1.2251,-0.7862 1.2642,-0.728 1.3013,-0.6676 1.3364,-0.6055 1.3695,-0.5414 1.4009,-0.4754 1.4302,-0.4075 1.4579,-0.3378 1.4833,-0.2659 1.5071,-0.1924 1.5289,-0.1169 z m 0,-0.5678 c 16.9309,0 30.7339,13.803 30.7339,30.7565 0,16.9308 -13.803,30.7339 -30.7339,30.7339 -16.9308,0 -30.7565,-13.8031 -30.7565,-30.7339 0,-16.9535 13.8257,-30.7565 30.7565,-30.7565 z" style="fill:#0f117a;fill-rule:evenodd;stroke:#0058a4;stroke-width:0.068;stroke-linecap:butt;stroke-linejoin:miter;stroke-dasharray:none" id="path8"/>
    <path d="m 291.7589,325.6896 1.5489,0.0394 1.5287,0.1169 1.5068,0.1924 1.4829,0.2659 1.4572,0.3378 1.4297,0.4075 1.4001,0.4754 1.3688,0.5413 1.3355,0.6055 1.3004,0.6676 1.2632,0.728 1.2242,0.7862 1.1833,0.8428 1.1404,0.8972 1.0955,0.9499 1.0488,1.0005 1,1.0494 0.9494,1.0961 0.897,1.1411 0.8424,1.184 0.786,1.2252 0.7277,1.2642 0.6675,1.3014 0.6053,1.3366 0.5413,1.3701 0.4753,1.4015 0.4075,1.4311 0.3377,1.4588 0.2659,1.4846 0.1925,1.5087 0.1168,1.5306 0.0394,1.551 -0.0394,1.5489 -0.1168,1.5288 -0.1925,1.5068 -0.2659,1.4829 -0.3377,1.4572 -0.4074,1.4297 -0.4754,1.4002 -0.5412,1.3687 -0.6054,1.3356 -0.6674,1.3004 -0.7277,1.2632 -0.7859,1.2243 -0.8425,1.1832 -0.897,1.1404 -0.9493,1.0955 -1.0001,1.0487 -1.0488,1.0002 -1.0955,0.9493 -1.1404,0.897 -1.1833,0.8424 -1.2242,0.7861 -1.2632,0.7276 -1.3004,0.6675 -1.3355,0.6052 -1.3689,0.5413 -1.4001,0.4754 -1.4297,0.4074 -1.4572,0.3376 -1.4829,0.266 -1.5068,0.1924 -1.5287,0.1168 -1.5489,0.0393 -1.549,-0.0393 -1.529,-0.1168 -1.507,-0.1924 -1.4834,-0.266 -1.4578,-0.3376 -1.4302,-0.4074 -1.4009,-0.4754 -1.3695,-0.5413 -1.3365,-0.6053 -1.3012,-0.6675 -1.2642,-0.7276 -1.2252,-0.7861 -1.1843,-0.8424 -1.1414,-0.897 -1.0966,-0.9494 -1.0498,-1.0002 -1.0012,-1.0488 -0.9505,-1.0955 -0.8979,-1.1403 -0.8434,-1.1833 -0.7871,-1.2243 -0.7285,-1.2632 -0.6683,-1.3003 -0.6061,-1.3357 -0.5421,-1.3687 -0.476,-1.4002 -0.408,-1.4296 -0.3381,-1.4572 -0.2664,-1.4828 -0.1926,-1.5068 -0.1171,-1.5287 -0.0393,-1.5489 0.0393,-1.5509 0.1171,-1.5307 0.1926,-1.5085 0.2664,-1.4847 0.3381,-1.4587 0.4081,-1.4311 0.4759,-1.4015 0.5421,-1.3701 0.6061,-1.3366 0.6684,-1.3014 0.7285,-1.2641 0.7871,-1.2252 0.8434,-1.184 0.8979,-1.1411 0.9505,-1.0962 1.0012,-1.0494 1.0498,-1.0005 1.0966,-0.9499 1.1414,-0.8973 1.1843,-0.8428 1.2251,-0.7862 1.2642,-0.728 1.3013,-0.6676 1.3364,-0.6055 1.3695,-0.5414 1.4009,-0.4754 1.4302,-0.4075 1.4579,-0.3378 1.4833,-0.2659 1.5071,-0.1924 1.5289,-0.1169 z" style="fill:#ffffff;fill-rule:evenodd;stroke:#0058a4;stroke-width:0.068;stroke-linecap:butt;stroke-linejoin:miter;stroke-dasharray:none" id="path10"/>
    <path d="m 285.642,362.1191 -24.3876,-6.0969 h 30.5299 z" style="fill:#0f117a;fill-rule:evenodd" id="path12"/>
    <path d="m 291.8069,386.5521 v 0.0226 l -6.1649,-24.4556 v 0 0 l 6.1423,-6.0969 h 0.0226 v 0.0226 z" style="fill:#009ee0;fill-rule:evenodd;stroke:#008bd0;stroke-width:0.0681;stroke-linecap:butt;stroke-linejoin:miter;stroke-dasharray:none" id="path14"/>
    <path d="m 297.9038,362.1644 v 0 l -6.0969,24.3877 v 0 -30.5299 0 z" style="fill:#0f117a;fill-rule:evenodd" id="path16"/>
    <path d="m 322.3368,356.0222 h 0.0227 l -24.433,6.1422 h -0.0227 l -6.0969,-6.1422 h 0.0454 v 0 z" style="fill:#009ee0;fill-rule:evenodd;stroke:#008bd0;stroke-width:0.0681;stroke-linecap:butt;stroke-linejoin:miter;stroke-dasharray:none" id="path18"/>
    <path d="m 285.6874,349.8573 h 0.0226 v -0.068 l 6.0969,-24.3196 v 30.4845 0.0453 z" style="fill:#0f117a;fill-rule:evenodd" id="path20"/>
    <path d="m 291.8069,356.0222 h -30.5525 v -0.0227 l 0.2946,-0.068 24.1384,-6.0742 6.1195,6.1422 z" style="fill:#009ee0;fill-rule:evenodd;stroke:#008bd0;stroke-width:0.0681;stroke-linecap:butt;stroke-linejoin:miter;stroke-dasharray:none" id="path22"/>
    <path d="m 297.9492,349.8799 0.0226,0.0227 0.0227,0.0227 24.297,6.0742 0.0453,0.0227 h -30.4845 -0.0227 -0.0227 v -0.0227 z" style="fill:#0f117a;fill-rule:evenodd;stroke:#0058a4;stroke-width:0.068;stroke-linecap:butt;stroke-linejoin:miter;stroke-dasharray:none" id="path24"/>
    <path d="m 291.8069,325.447 0.068,0.3173 6.0743,24.1156 -6.1423,6.1196 v -30.5298 z" style="fill:#009ee0;fill-rule:evenodd;stroke:#008bd0;stroke-width:0.0681;stroke-linecap:butt;stroke-linejoin:miter;stroke-dasharray:none" id="path26"/>
    <path d="m 282.5596,377.2594 c 0,-1.7226 2.7424,-2.7878 6.0969,-3.1958 l -0.4307,-1.7226 c -4.7596,0.544 -8.7034,2.1759 -8.7034,4.9184 0,6.7542 24.569,6.7315 24.569,0 0,-2.7425 -3.9664,-4.3744 -8.726,-4.9184 l -0.4307,1.7226 c 3.3544,0.408 6.0969,1.4506 6.0969,3.1958 0,4.397 -18.472,4.4197 -18.472,0 z" style="fill:#d2d500;fill-rule:evenodd;stroke:#0058a4;stroke-width:0.3338;stroke-linecap:butt;stroke-linejoin:miter;stroke-dasharray:none" id="path28"/>
    <path d="m 278.6158,368.3747 c -3.5584,-3.3998 -7.4794,-5.0544 -8.7487,-3.7171 -1.2466,1.3599 0.6346,5.2356 4.1931,8.6354 1.8812,1.7905 3.8304,3.0824 5.4622,3.7397 0,0.068 0,0.136 0,0.2267 0,0.8386 0.476,1.6319 1.3373,2.3345 -2.3572,-0.7026 -5.2583,-2.4705 -7.9555,-5.0317 -4.7823,-4.5783 -7.1395,-9.9726 -5.2583,-12.0125 1.9039,-2.0625 7.3435,0 12.1259,4.5784 1.9718,1.8585 8.0687,8.9527 5.2583,12.0125 -0.0907,0.1133 -0.2267,0.204 -0.34,0.2946 -1.3146,-0.5893 -2.1305,-1.3599 -2.1305,-2.1758 0,-0.0227 0,-0.0454 0,-0.0454 0.0906,-0.068 0.1813,-0.136 0.2493,-0.2039 1.8359,-1.9946 -3.0145,-7.5022 -4.1931,-8.6354 z" style="fill:#d2d500;fill-rule:evenodd" id="path30"/>
    <path d="m 278.6158,368.3747 c -3.5584,-3.3998 -7.4794,-5.0544 -8.7487,-3.7171 -1.2466,1.3599 0.6346,5.2356 4.1931,8.6354 1.8812,1.7905 3.8304,3.0824 5.4622,3.7397 0,0.068 0,0.136 0,0.2267 0,0.8386 0.476,1.6319 1.3373,2.3345 -2.3572,-0.7026 -5.2583,-2.4705 -7.9555,-5.0317 -4.7823,-4.5783 -7.1395,-9.9726 -5.2583,-12.0125 1.9039,-2.0625 7.3435,0 12.1259,4.5784 1.9718,1.8585 8.0687,8.9527 5.2583,12.0125 -0.0907,0.1133 -0.2267,0.204 -0.34,0.2946 -1.3146,-0.5893 -2.1305,-1.3599 -2.1305,-2.1758 0,0 0,-0.0454 0,-0.0454 0.0906,-0.068 0.1813,-0.136 0.2493,-0.2039 1.8359,-1.9946 -3.0145,-7.5022 -4.1931,-8.6354 z" style="fill:none;stroke:#0058a4;stroke-width:0.3338;stroke-linecap:butt;stroke-linejoin:miter;stroke-dasharray:none" id="path32"/>
    <path d="m 304.998,368.3747 c 3.5584,-3.3998 7.4795,-5.0544 8.7261,-3.7171 1.2692,1.3599 -0.6346,5.2356 -4.1931,8.6354 -1.8585,1.7905 -3.8304,3.0824 -5.4396,3.7397 0,0.068 0,0.136 0,0.2267 0,0.8386 -0.476,1.6319 -1.3372,2.3345 2.3571,-0.7026 5.2583,-2.4705 7.9328,-5.0317 4.805,-4.5783 7.1621,-9.9726 5.2809,-12.0125 -1.9038,-2.0625 -7.3435,0 -12.1258,4.5784 -1.9719,1.8585 -8.0688,8.9527 -5.2583,12.0125 0.0907,0.1133 0.204,0.204 0.34,0.2946 1.3145,-0.5893 2.1078,-1.3599 2.1078,-2.1758 0,-0.0227 0,-0.0454 0,-0.0454 -0.0906,-0.068 -0.1586,-0.136 -0.2266,-0.2039 -1.8359,-1.9946 3.0144,-7.5022 4.193,-8.6354 z" style="fill:#d2d500;fill-rule:evenodd" id="path34"/>
    <path d="m 304.998,368.3747 c 3.5584,-3.3998 7.4795,-5.0544 8.7261,-3.7171 1.2692,1.3599 -0.6346,5.2356 -4.1931,8.6354 -1.8585,1.7905 -3.8304,3.0824 -5.4396,3.7397 0,0.068 0,0.136 0,0.2267 0,0.8386 -0.476,1.6319 -1.3372,2.3345 2.3571,-0.7026 5.2583,-2.4705 7.9328,-5.0317 4.805,-4.5783 7.1621,-9.9726 5.2809,-12.0125 -1.9038,-2.0625 -7.3435,0 -12.1258,4.5784 -1.9719,1.8585 -8.0688,8.9527 -5.2583,12.0125 0.0907,0.1133 0.204,0.204 0.34,0.2946 1.3145,-0.5893 2.1078,-1.3599 2.1078,-2.1758 0,0 0,-0.0454 0,-0.0454 -0.0906,-0.068 -0.1586,-0.136 -0.2266,-0.2039 -1.8359,-1.9946 3.0144,-7.5022 4.193,-8.6354 z" style="fill:none;stroke:#0058a4;stroke-width:0.3338;stroke-linecap:butt;stroke-linejoin:miter;stroke-dasharray:none" id="path36"/>
    <path d="m 264.7448,356.8835 c 0.136,4.125 1.1559,7.6834 2.6065,9.5873 -0.5213,-1.6319 -0.476,-2.9918 0.2266,-3.8304 -0.5893,-1.3599 -0.9746,-3.2185 -1.1105,-5.3263 z" style="fill:#d2d500;fill-rule:evenodd;stroke:#0058a4;stroke-width:0.3338;stroke-linecap:butt;stroke-linejoin:miter;stroke-dasharray:none" id="path38"/>
    <path d="m 269.7311,346.7975 c 1.8359,0 3.3318,4.057 3.3318,9.0207 0,1.8359 -0.6346,9.0207 -3.3318,9.0207 -0.4306,0.6573 -0.2946,1.7679 0.2947,3.0825 3.989,-0.5667 4.737,-9.0661 4.737,-12.1032 0,-6.6635 -2.2665,-12.1032 -5.0317,-12.1032 -2.6518,0 -4.8503,5.0544 -5.009,11.4232 l 1.7226,-0.4306 c 0.204,-4.4423 1.6092,-7.9101 3.2864,-7.9101 z" style="fill:#d2d500;fill-rule:evenodd;stroke:#0058a4;stroke-width:0.3338;stroke-linecap:butt;stroke-linejoin:miter;stroke-dasharray:none" id="path40"/>
    <path d="m 318.8691,356.9061 c -0.1587,4.1251 -1.1786,7.6608 -2.6065,9.5647 0.5213,-1.6319 0.4759,-2.9918 -0.2267,-3.8304 0.5666,-1.3373 0.9746,-3.1958 1.1106,-5.3036 z" style="fill:#d2d500;fill-rule:evenodd;stroke:#0058a4;stroke-width:0.3338;stroke-linecap:butt;stroke-linejoin:miter;stroke-dasharray:none" id="path42"/>
    <path d="m 313.8601,346.7975 c -1.8132,0 -3.3091,4.057 -3.3091,9.0207 0,1.8359 0.6119,9.0207 3.3091,9.0207 0.4306,0.6573 0.2946,1.7679 -0.2947,3.0825 -3.9664,-0.5667 -4.7143,-9.0661 -4.7143,-12.1032 0,-6.6635 2.2438,-12.1032 5.009,-12.1032 2.6745,0 4.873,5.077 5.009,11.4232 l -1.6999,-0.4306 c -0.204,-4.4423 -1.6092,-7.9101 -3.3091,-7.9101 z" style="fill:#d2d500;fill-rule:evenodd;stroke:#0058a4;stroke-width:0.3338;stroke-linecap:butt;stroke-linejoin:miter;stroke-dasharray:none" id="path44"/>
    <path d="m 282.8089,334.581 c 1.2466,1.3599 -0.6346,5.2356 -4.1931,8.6354 -1.8585,1.7679 -3.8304,3.0825 -5.4622,3.7171 -0.9066,0.272 -2.4932,0.8386 -3.2865,-0.0227 -0.0226,-0.0226 -0.0453,-0.068 -0.0906,-0.0906 0,0 -0.0227,-0.0227 -0.0454,-0.0227 -0.8159,0 -1.5639,0.8159 -2.1532,2.1758 0.0227,0.0227 0.0454,0.0454 0.068,0.068 0.8386,0.9066 2.3799,1.02 4.2384,0.4533 2.9238,-0.8839 5.7343,-2.9691 7.8875,-5.0316 4.7823,-4.5557 7.1621,-9.95 5.2583,-12.0125 -1.8812,-2.0399 -7.3435,0.0227 -12.1259,4.5783 -2.8558,2.7425 -4.8503,5.757 -5.5982,8.2048 0.7252,-0.9746 1.5639,-1.5186 2.4251,-1.5186 0.0907,0 0.1813,0 0.272,0 0.7253,-1.6318 2.1532,-3.6037 4.0571,-5.4169 3.581,-3.3998 7.5021,-5.077 8.7487,-3.7171 z" style="fill:#d2d500;fill-rule:evenodd" id="path46"/>
    <path d="m 282.8089,334.581 c 1.2466,1.3599 -0.6346,5.2356 -4.1931,8.6354 -1.8585,1.7679 -3.8304,3.0825 -5.4622,3.7171 -0.9066,0.272 -2.4932,0.8386 -3.2865,-0.0227 -0.0226,-0.0226 -0.0453,-0.068 -0.0906,-0.0906 0,0 -0.0454,-0.0227 -0.0454,-0.0227 -0.8159,0 -1.5639,0.8159 -2.1532,2.1758 0.0227,0.0227 0.0454,0.0454 0.068,0.068 0.8386,0.9066 2.3799,1.02 4.2384,0.4533 2.9238,-0.8839 5.7343,-2.9691 7.8875,-5.0316 4.7823,-4.5557 7.1621,-9.95 5.2583,-12.0125 -1.8812,-2.0399 -7.3435,0.0227 -12.1259,4.5783 -2.8558,2.7425 -4.8503,5.757 -5.5982,8.2048 0.7252,-0.9746 1.5639,-1.5186 2.4251,-1.5186 0.0907,0 0.1813,0 0.272,0 0.7253,-1.6318 2.1532,-3.6037 4.0571,-5.4169 3.581,-3.3998 7.5021,-5.077 8.7487,-3.7171 z" style="fill:none;stroke:#0058a4;stroke-width:0.3338;stroke-linecap:butt;stroke-linejoin:miter;stroke-dasharray:none" id="path48"/>
    <path d="m 300.805,334.581 c -1.2466,1.3599 0.6346,5.2356 4.193,8.6354 1.8586,1.7679 3.8304,3.0825 5.4623,3.7171 0.9066,0.272 2.4705,0.8386 3.2638,-0.0227 0.0453,-0.0226 0.068,-0.068 0.0906,-0.0906 0.0227,0 0.0454,-0.0227 0.0454,-0.0227 0.8159,0 1.5865,0.8159 2.1532,2.1758 -0.0227,0.0227 -0.0454,0.0454 -0.0454,0.068 -0.8386,0.9066 -2.3798,1.02 -4.261,0.4533 -2.9238,-0.8839 -5.7343,-2.9691 -7.8648,-5.0316 -4.805,-4.5557 -7.1622,-9.95 -5.2583,-12.0125 1.8812,-2.0399 7.3208,0.0227 12.1032,4.5783 2.8784,2.7425 4.873,5.757 5.5982,8.2048 -0.7026,-0.9746 -1.5412,-1.5186 -2.4251,-1.5186 -0.0907,0 -0.1813,0 -0.2493,0 -0.7253,-1.6318 -2.1532,-3.6037 -4.0798,-5.4169 -3.5584,-3.3998 -7.4794,-5.077 -8.726,-3.7171 z" style="fill:#d2d500;fill-rule:evenodd" id="path50"/>
    <path d="m 300.805,334.581 c -1.2466,1.3599 0.6346,5.2356 4.193,8.6354 1.8586,1.7679 3.8304,3.0825 5.4623,3.7171 0.9066,0.272 2.4705,0.8386 3.2638,-0.0227 0.0453,-0.0226 0.068,-0.068 0.0906,-0.0906 0,0 0.0454,-0.0227 0.0454,-0.0227 0.8159,0 1.5865,0.8159 2.1532,2.1758 -0.0227,0.0227 -0.0454,0.0454 -0.0454,0.068 -0.8386,0.9066 -2.3798,1.02 -4.261,0.4533 -2.9238,-0.8839 -5.7343,-2.9691 -7.8648,-5.0316 -4.805,-4.5557 -7.1622,-9.95 -5.2583,-12.0125 1.8812,-2.0399 7.3208,0.0227 12.1032,4.5783 2.8784,2.7425 4.873,5.757 5.5982,8.2048 -0.7026,-0.9746 -1.5412,-1.5186 -2.4251,-1.5186 -0.0907,0 -0.1813,0 -0.2493,0 -0.7253,-1.6318 -2.1532,-3.6037 -4.0798,-5.4169 -3.5584,-3.3998 -7.4794,-5.077 -8.726,-3.7171 z" style="fill:none;stroke:#0058a4;stroke-width:0.3338;stroke-linecap:butt;stroke-linejoin:miter;stroke-dasharray:none" id="path52"/>
    <path d="m 285.1661,332.6092 c -0.0454,-0.0454 -0.0907,-0.0907 -0.136,-0.1587 -0.5667,-0.612 -1.4506,-0.8613 -2.5385,-0.7706 4.941,-2.6292 13.6897,-2.6292 18.6307,0 -1.0879,-0.0907 -1.9719,0.1586 -2.5385,0.7706 -0.068,0.068 -0.1133,0.1133 -0.136,0.1587 -3.6944,-1.5413 -9.61,-1.5413 -13.2817,0 z" style="fill:#d2d500;fill-rule:evenodd;stroke:#0058a4;stroke-width:0.3338;stroke-linecap:butt;stroke-linejoin:miter;stroke-dasharray:none" id="path54"/>
    <path d="m 288.6791,337.9581 c -3.3544,-0.408 -6.0289,-1.4959 -5.7796,-3.2638 -0.0226,-0.0453 -0.0679,-0.0906 -0.0906,-0.1133 -0.544,-0.5893 -1.6092,-0.6119 -2.9238,-0.1586 -0.0227,0.1586 -0.0453,0.2946 -0.0453,0.4533 0,2.6971 3.8077,4.3063 8.386,4.8503 z" style="fill:#d2d500;fill-rule:evenodd;stroke:#0058a4;stroke-width:0.3338;stroke-linecap:butt;stroke-linejoin:miter;stroke-dasharray:none" id="path56"/>
    <path d="m 303.7741,334.8757 c 0,-0.1587 -0.0227,-0.2947 -0.0453,-0.4533 -1.3146,-0.4533 -2.3799,-0.4307 -2.9238,0.1586 -0.0454,0.0227 -0.068,0.068 -0.0907,0.1133 0.2493,1.7679 -2.4252,2.8558 -5.7569,3.2638 l 0.4306,1.7679 c 4.5784,-0.544 8.3861,-2.1759 8.3861,-4.8503 z" style="fill:#d2d500;fill-rule:evenodd;stroke:#0058a4;stroke-width:0.3338;stroke-linecap:butt;stroke-linejoin:miter;stroke-dasharray:none" id="path58"/>
    <path d="m 276.5948,326.3986 c -0.8173,0.4087 -1.612,0.4995 -2.3612,0.2498 -0.7493,-0.2498 -1.3623,-0.8401 -1.8164,-1.7483 -0.4541,-0.8855 -0.5676,-1.7028 -0.3405,-2.4748 0.227,-0.7719 0.7492,-1.3849 1.5893,-1.7936 0.227,-0.1135 0.4314,-0.2044 0.613,-0.2725 0.1816,-0.0681 0.386,-0.1135 0.5676,-0.1589 0.1362,-0.0227 0.2952,-0.0454 0.4768,-0.0681 0.1816,0 0.3406,0 0.4541,0 l 0.6811,1.3168 -0.1362,0.0681 c -0.1135,-0.0227 -0.2271,-0.0454 -0.3633,-0.0908 -0.1589,-0.0227 -0.3178,-0.0454 -0.4768,-0.0681 -0.1816,0 -0.3405,0 -0.5449,0.0227 -0.1816,0.0227 -0.3405,0.0681 -0.5222,0.159 -0.2043,0.1135 -0.3633,0.227 -0.4995,0.3859 -0.1362,0.1363 -0.2497,0.3406 -0.3178,0.5676 -0.0682,0.2271 -0.0682,0.4768 -0.0455,0.7493 0.0455,0.2951 0.1363,0.5903 0.2952,0.9309 0.1816,0.3405 0.386,0.613 0.5903,0.7946 0.2044,0.1817 0.4314,0.3179 0.6584,0.386 0.2044,0.0681 0.4314,0.0908 0.6358,0.0454 0.2043,-0.0227 0.386,-0.0681 0.5676,-0.1589 0.1816,-0.1135 0.3406,-0.2271 0.4768,-0.3633 0.1362,-0.1589 0.2497,-0.2951 0.3178,-0.4314 0.0909,-0.1362 0.159,-0.2724 0.2271,-0.3859 0.0454,-0.1363 0.0908,-0.2498 0.1362,-0.3406 l 0.1135,-0.0681 0.6585,1.2941 c -0.0681,0.1136 -0.159,0.2271 -0.2498,0.3406 -0.1135,0.1362 -0.227,0.2497 -0.3405,0.386 -0.159,0.1362 -0.2952,0.2497 -0.4314,0.3632 -0.1363,0.0909 -0.3406,0.2271 -0.6131,0.3633 z m 6.5844,-2.9062 -3.9506,1.2715 -1.9299,-5.9259 1.4758,-0.4768 1.5666,4.7907 2.4748,-0.7947 z m 3.224,-0.4995 c -0.8174,0.1136 -1.4985,-0.0227 -1.9753,-0.3632 -0.4995,-0.3406 -0.7947,-0.9082 -0.8855,-1.6802 l -0.4995,-3.9505 1.5666,-0.1817 0.4541,3.8598 c 0.0681,0.4087 0.1817,0.7265 0.3633,0.9309 0.2043,0.1816 0.4768,0.2497 0.8401,0.2043 0.3632,-0.0454 0.613,-0.1816 0.7492,-0.386 0.1362,-0.227 0.1817,-0.5676 0.1362,-1.0217 l -0.4768,-3.8597 1.544,-0.1817 0.4995,3.9506 c 0.0908,0.7493 -0.0682,1.3623 -0.4541,1.8391 -0.386,0.4541 -0.999,0.7265 -1.8618,0.84 z m 8.8548,-2.1115 c -0.0228,0.3179 -0.1136,0.5903 -0.2498,0.7947 -0.1362,0.227 -0.2952,0.4087 -0.4995,0.5676 -0.2497,0.1589 -0.5222,0.2724 -0.7947,0.3179 -0.2951,0.0681 -0.6584,0.0908 -1.0898,0.0454 l -2.4748,-0.159 0.4314,-6.221 2.2024,0.1589 c 0.4541,0.0227 0.7946,0.0681 1.0217,0.1136 0.227,0.0454 0.4541,0.1362 0.6584,0.2724 0.2043,0.1362 0.3633,0.2952 0.4541,0.4995 0.0908,0.2271 0.1362,0.4541 0.1135,0.7266 -0.0227,0.2951 -0.1135,0.5676 -0.2724,0.7946 -0.1817,0.2044 -0.386,0.3633 -0.6812,0.4768 v 0.0227 c 0.386,0.1135 0.6812,0.2952 0.8855,0.5676 0.227,0.2498 0.3179,0.613 0.2952,1.0217 z m -1.8391,-2.7018 c 0.0227,-0.0908 0,-0.2044 -0.0454,-0.2952 -0.0454,-0.1135 -0.1135,-0.2043 -0.2271,-0.2497 -0.0908,-0.0681 -0.227,-0.0908 -0.3632,-0.1135 -0.1363,0 -0.3406,-0.0227 -0.6131,-0.0455 h -0.1135 l -0.0908,1.3169 h 0.1816 c 0.2725,0.0227 0.4541,0.0454 0.5676,0.0454 0.1136,0 0.2271,-0.0227 0.3406,-0.0681 0.1362,-0.0454 0.2271,-0.1362 0.2725,-0.227 0.0681,-0.0909 0.0908,-0.2271 0.0908,-0.3633 z m 0.227,2.5656 c 0,-0.2043 -0.0227,-0.3406 -0.0908,-0.4541 -0.0681,-0.1135 -0.1816,-0.2043 -0.3406,-0.2724 -0.0908,-0.0455 -0.2043,-0.0682 -0.3859,-0.0909 -0.159,-0.0227 -0.386,-0.0454 -0.6585,-0.0454 l -0.2951,-0.0227 -0.0908,1.5439 h 0.0681 c 0.4087,0.0454 0.7038,0.0454 0.84,0.0681 0.159,0 0.3179,-0.0227 0.4995,-0.0908 0.1363,-0.0454 0.2498,-0.1362 0.3179,-0.2497 0.0908,-0.1135 0.1135,-0.2498 0.1362,-0.386 z m 12.1242,3.6554 -0.7946,-0.3178 -0.5222,1.3849 -1.4077,-0.5449 0.5222,-1.385 -2.5656,-0.9762 0.4314,-1.0899 3.8143,-2.4066 1.4531,0.5676 -1.3168,3.4057 0.7946,0.2951 z m -1.7936,-1.9072 0.7492,-1.9752 -2.225,1.4076 z m 5.7669,5.5399 -3.5873,-1.9753 0.5222,-0.9535 1.1352,0.6357 1.6121,-2.8835 -1.158,-0.6357 0.4995,-0.8855 c 0.159,0.0908 0.3406,0.1589 0.5222,0.2271 0.1817,0.0681 0.3179,0.1135 0.4541,0.1135 0.1363,0.0227 0.2725,-0.0227 0.4087,-0.0681 0.1135,-0.0681 0.2271,-0.1817 0.3179,-0.3179 l 1.1806,0.6584 -2.4975,4.5182 1.1125,0.6131 z" style="fill:#ffffff;fill-rule:evenodd" id="path60"/>
    <path d="m 291.8069,347.4003 c 4.7907,0 8.6959,3.9051 8.6959,8.6958 0,4.7679 -3.9052,8.6958 -8.6959,8.6958 -4.7906,0 -8.6958,-3.9279 -8.6958,-8.6958 0,-4.7907 3.9052,-8.6958 8.6958,-8.6958 z" style="fill:#e30016;fill-rule:evenodd;stroke:#e30016;stroke-width:0.0681;stroke-linecap:butt;stroke-linejoin:miter;stroke-dasharray:none" id="path62"/>
    <path d="m 291.8069,350.2156 c 3.224,0 5.8805,2.6338 5.8805,5.8805 0,3.224 -2.6565,5.8578 -5.8805,5.8578 -3.2468,0 -5.8805,-2.6338 -5.8805,-5.8578 0,-3.2467 2.6337,-5.8805 5.8805,-5.8805 z" style="fill:#ffec00;fill-rule:evenodd;stroke:#ffec00;stroke-width:0.0681;stroke-linecap:butt;stroke-linejoin:miter;stroke-dasharray:none" id="path64"/>
    <path d="m 291.8069,352.9629 c 1.7256,0 3.1333,1.4077 3.1333,3.1332 0,1.7255 -1.4077,3.1105 -3.1333,3.1105 -1.7255,0 -3.1332,-1.385 -3.1332,-3.1105 0,-1.7255 1.4077,-3.1332 3.1332,-3.1332 z" style="fill:#0058a4;fill-rule:evenodd;stroke:#0058a4;stroke-width:0.0679;stroke-linecap:butt;stroke-linejoin:miter;stroke-dasharray:none" id="path66"/>
    <path d="m 310.697,390.8226 -3.0424,1.4077 -0.4541,-0.9763 0.8174,-0.386 -1.7256,-3.6781 -0.8173,0.386 -0.4541,-0.999 3.0424,-1.4077 0.4541,0.9763 -0.7947,0.386 1.7029,3.6781 0.8173,-0.386 z" style="fill:#ffffff;fill-rule:evenodd" id="path68"/>
    <path d="m 305.0436,392.9796 -1.4531,0.4086 -3.4965,-3.5192 1.2033,4.1777 -1.3849,0.4086 -1.7256,-5.9939 1.8618,-0.5222 2.8835,2.8834 -0.9763,-3.4511 1.3622,-0.3859 z" style="fill:#ffffff;fill-rule:evenodd" id="path70"/>
    <path d="m 289.2185,395.1819 -1.5439,-0.2271 0.5903,-4.0868 -1.4984,2.4748 -1.0672,-0.1362 -0.7492,-2.7927 -0.5676,4.0869 -1.4531,-0.2044 0.8628,-6.1756 1.7709,0.2497 0.9536,3.2241 1.7937,-2.8381 1.7709,0.2498 z" style="fill:#ffffff;fill-rule:evenodd" id="path72"/>
    <path d="m 272.9848,385.8503 c 0.0908,-0.1362 0.1362,-0.2497 0.1362,-0.3859 0.0227,-0.1363 -0.0227,-0.2498 -0.1135,-0.386 -0.0454,-0.0908 -0.1362,-0.1589 -0.227,-0.2271 -0.0908,-0.0908 -0.2271,-0.1589 -0.3633,-0.2497 l -0.4541,-0.2952 -0.8855,1.4304 0.386,0.2498 c 0.1816,0.1135 0.3406,0.1816 0.4768,0.2497 0.1589,0.0681 0.2952,0.0681 0.4314,0.0681 0.1135,-0.0227 0.227,-0.0681 0.3406,-0.1362 0.0908,-0.0681 0.1816,-0.1589 0.2724,-0.3179 z m -0.1589,4.995 -1.612,-0.999 -0.2498,-2.8607 -0.4768,-0.2952 -1.226,1.9299 -1.3169,-0.8174 3.3149,-5.2901 2.1115,1.3395 c 0.2951,0.1817 0.5449,0.3633 0.7492,0.5223 0.1817,0.1816 0.3406,0.3859 0.4541,0.613 0.1136,0.227 0.159,0.4768 0.159,0.7492 0,0.2498 -0.0909,0.5222 -0.2725,0.7947 -0.2497,0.4087 -0.5449,0.6811 -0.8855,0.8173 -0.3405,0.1363 -0.7038,0.1817 -1.1125,0.159 z" style="fill:#ffffff;fill-rule:evenodd" id="path74"/>
    <path d="m 279.8416,390.1188 c 0.1135,-0.3406 0.1816,-0.6584 0.1816,-0.9309 0.0227,-0.2724 0,-0.4995 -0.0681,-0.7038 -0.0681,-0.2044 -0.1816,-0.3633 -0.3179,-0.4995 -0.1362,-0.1136 -0.2951,-0.2044 -0.4541,-0.2725 -0.1816,-0.0681 -0.3632,-0.0908 -0.5222,-0.0681 -0.1816,0 -0.3632,0.0681 -0.5449,0.2043 -0.1816,0.0909 -0.3632,0.2725 -0.5222,0.4995 -0.1589,0.2271 -0.2951,0.5222 -0.4087,0.8628 -0.1362,0.3633 -0.2043,0.6811 -0.2043,0.9309 -0.0227,0.2724 0,0.4995 0.0681,0.7038 0.0908,0.2044 0.1817,0.386 0.3179,0.4995 0.1362,0.1363 0.2951,0.2271 0.4541,0.2725 0.1816,0.0681 0.3632,0.0908 0.5676,0.0681 0.1816,-0.0227 0.3633,-0.0908 0.5222,-0.2043 0.2043,-0.1136 0.3633,-0.2952 0.4995,-0.4995 0.1589,-0.2044 0.2951,-0.4768 0.4314,-0.8628 z m 1.5212,0.5449 c -0.3406,0.9536 -0.8401,1.612 -1.5439,1.9753 -0.7039,0.3633 -1.4758,0.4087 -2.384,0.0908 -0.8855,-0.2952 -1.4758,-0.8174 -1.7937,-1.5439 -0.3178,-0.7265 -0.3178,-1.5666 0,-2.4975 0.3406,-0.9536 0.8401,-1.612 1.5439,-1.9753 0.6812,-0.386 1.4758,-0.4087 2.384,-0.1135 0.8855,0.2952 1.4758,0.8174 1.7937,1.5439 0.3178,0.7265 0.3178,1.5666 0,2.5202 z" style="fill:#ffffff;fill-rule:evenodd" id="path76"/>
    <path d="m 314.2389,385.4871 -1.7255,-1.2942 0.6811,2.0434 z m -1.4758,4.0414 -1.9753,-6.2665 1.385,-1.0217 5.381,3.8144 -1.3169,0.9536 -1.0671,-0.8174 -1.5666,1.1579 0.4314,1.2715 z" style="fill:#ffffff;fill-rule:evenodd" id="path78"/>
    <path d="m 295.0309,392.5936 -0.8855,-1.9526 -0.386,2.1115 z m -3.2695,2.8153 1.3396,-6.4253 1.7028,-0.2271 2.8381,5.9259 -1.5893,0.2043 -0.5449,-1.2033 -1.9526,0.227 -0.227,1.3169 z" style="fill:#ffffff;fill-rule:evenodd" id="path80"/>
    <path d="m 291.8069,313.5015 a 42.5093,42.5093 0 0 1 42.5094,42.5093 42.5093,42.5093 0 1 1 -42.5094,-42.5093 z" style="fill:none" id="path82"/>
  </g>
</svg>